<svg xmlns="http://www.w3.org/2000/svg" viewBox="0 0 24 24" xml:space="preserve" style="fill:#ffc700">
  <path d="M12 19.5c-4.135 0-7.5-3.365-7.5-7.5S7.865 4.5 12 4.5s7.5 3.365 7.5 7.5-3.365 7.5-7.5 7.5zM12 6c-3.308 0-6 2.692-6 6s2.692 6 6 6 6-2.692 6-6-2.692-6-6-6zM12 3c-.414 0-.75-.336-.75-.75V.75c0-.414.336-.75.75-.75s.75.336.75.75v1.5c0 .414-.336.75-.75.75zM18.894 5.856c-.2 0-.389-.078-.53-.22-.142-.142-.22-.33-.22-.53s.078-.389.22-.53l1.061-1.061c.142-.142.33-.22.53-.22s.389.078.53.22c.142.142.22.33.22.53s-.078.389-.22.53l-1.061 1.061c-.141.142-.33.22-.53.22zM21.75 12.75c-.414 0-.75-.336-.75-.75s.336-.75.75-.75h1.5c.414 0 .75.336.75.75s-.336.75-.75.75h-1.5zM19.955 20.705c-.2 0-.389-.078-.53-.22l-1.061-1.061c-.292-.292-.292-.768 0-1.061.142-.142.33-.22.53-.22s.389.078.53.22l1.061 1.061c.292.292.292.768 0 1.061-.141.142-.33.22-.53.22zM12 24c-.414 0-.75-.336-.75-.75v-1.5c0-.414.336-.75.75-.75s.75.336.75.75v1.5c0 .414-.336.75-.75.75zM4.045 20.705c-.2 0-.389-.078-.53-.22-.142-.142-.22-.33-.22-.53s.078-.389.22-.53l1.061-1.061c.141-.142.33-.22.53-.22s.389.078.53.22c.292.292.292.768 0 1.061l-1.061 1.061c-.141.141-.329.219-.53.219zM.75 12.75c-.414 0-.75-.336-.75-.75s.336-.75.75-.75h1.5c.414 0 .75.336.75.75s-.336.75-.75.75H.75zM5.106 5.856c-.2 0-.389-.078-.53-.22L3.515 4.575c-.142-.141-.22-.33-.22-.53s.078-.389.22-.53c.141-.142.33-.22.53-.22s.389.078.53.22l1.061 1.061c.142.141.22.33.22.53s-.078.389-.22.53c-.141.142-.33.22-.53.22z"/>
</svg>
